G04 #@! TF.GenerationSoftware,KiCad,Pcbnew,(5.1.2)-1*
G04 #@! TF.CreationDate,2019-06-17T20:55:27+03:00*
G04 #@! TF.ProjectId,esp8266_minimal_hw,65737038-3236-4365-9f6d-696e696d616c,rev?*
G04 #@! TF.SameCoordinates,Original*
G04 #@! TF.FileFunction,Legend,Top*
G04 #@! TF.FilePolarity,Positive*
%FSLAX46Y46*%
G04 Gerber Fmt 4.6, Leading zero omitted, Abs format (unit mm)*
G04 Created by KiCad (PCBNEW (5.1.2)-1) date 2019-06-17 20:55:27*
%MOMM*%
%LPD*%
G04 APERTURE LIST*
%ADD10C,0.120000*%
%ADD11C,0.150000*%
G04 APERTURE END LIST*
D10*
X86300000Y-73720000D02*
X86300000Y-72390000D01*
X87630000Y-73720000D02*
X86300000Y-73720000D01*
X88900000Y-73720000D02*
X88900000Y-71060000D01*
X88900000Y-71060000D02*
X88960000Y-71060000D01*
X88900000Y-73720000D02*
X88960000Y-73720000D01*
X88960000Y-73720000D02*
X88960000Y-71060000D01*
X93961000Y-72390000D02*
G75*
G03X93961000Y-72390000I-1251000J0D01*
G01*
X78721000Y-72390000D02*
G75*
G03X78721000Y-72390000I-1251000J0D01*
G01*
X76980000Y-46365000D02*
X76370000Y-46365000D01*
X76980000Y-46365000D02*
X76980000Y-38745000D01*
X76980000Y-62985000D02*
X76980000Y-62365000D01*
X79100000Y-62985000D02*
X76980000Y-62985000D01*
X93220000Y-62985000D02*
X91100000Y-62985000D01*
X93220000Y-62365000D02*
X93220000Y-62985000D01*
X93220000Y-38745000D02*
X93220000Y-46365000D01*
X76980000Y-38745000D02*
X93220000Y-38745000D01*
X76140000Y-69910000D02*
X76140000Y-68580000D01*
X77470000Y-69910000D02*
X76140000Y-69910000D01*
X76140000Y-67310000D02*
X76140000Y-64710000D01*
X78740000Y-67310000D02*
X76140000Y-67310000D01*
X78740000Y-69910000D02*
X78740000Y-67310000D01*
X76140000Y-64710000D02*
X94040000Y-64710000D01*
X78740000Y-69910000D02*
X94040000Y-69910000D01*
X94040000Y-69910000D02*
X94040000Y-64710000D01*
X81220000Y-73720000D02*
X81220000Y-72390000D01*
X82550000Y-73720000D02*
X81220000Y-73720000D01*
X83820000Y-73720000D02*
X83820000Y-71060000D01*
X83820000Y-71060000D02*
X83880000Y-71060000D01*
X83820000Y-73720000D02*
X83880000Y-73720000D01*
X83880000Y-73720000D02*
X83880000Y-71060000D01*
D11*
X84752380Y-72723333D02*
X85466666Y-72723333D01*
X85609523Y-72770952D01*
X85704761Y-72866190D01*
X85752380Y-73009047D01*
X85752380Y-73104285D01*
X85752380Y-71723333D02*
X85752380Y-72294761D01*
X85752380Y-72009047D02*
X84752380Y-72009047D01*
X84895238Y-72104285D01*
X84990476Y-72199523D01*
X85038095Y-72294761D01*
X92995714Y-72842380D02*
X92424285Y-72842380D01*
X92710000Y-72842380D02*
X92710000Y-71842380D01*
X92614761Y-71985238D01*
X92519523Y-72080476D01*
X92424285Y-72128095D01*
X77755714Y-72842380D02*
X77184285Y-72842380D01*
X77470000Y-72842380D02*
X77470000Y-71842380D01*
X77374761Y-71985238D01*
X77279523Y-72080476D01*
X77184285Y-72128095D01*
X85598095Y-41362380D02*
X85598095Y-42171904D01*
X85645714Y-42267142D01*
X85693333Y-42314761D01*
X85788571Y-42362380D01*
X85979047Y-42362380D01*
X86074285Y-42314761D01*
X86121904Y-42267142D01*
X86169523Y-42171904D01*
X86169523Y-41362380D01*
X87169523Y-42362380D02*
X86598095Y-42362380D01*
X86883809Y-42362380D02*
X86883809Y-41362380D01*
X86788571Y-41505238D01*
X86693333Y-41600476D01*
X86598095Y-41648095D01*
X76922380Y-63833333D02*
X77636666Y-63833333D01*
X77779523Y-63880952D01*
X77874761Y-63976190D01*
X77922380Y-64119047D01*
X77922380Y-64214285D01*
X76922380Y-63452380D02*
X76922380Y-62833333D01*
X77303333Y-63166666D01*
X77303333Y-63023809D01*
X77350952Y-62928571D01*
X77398571Y-62880952D01*
X77493809Y-62833333D01*
X77731904Y-62833333D01*
X77827142Y-62880952D01*
X77874761Y-62928571D01*
X77922380Y-63023809D01*
X77922380Y-63309523D01*
X77874761Y-63404761D01*
X77827142Y-63452380D01*
X79672380Y-72723333D02*
X80386666Y-72723333D01*
X80529523Y-72770952D01*
X80624761Y-72866190D01*
X80672380Y-73009047D01*
X80672380Y-73104285D01*
X79767619Y-72294761D02*
X79720000Y-72247142D01*
X79672380Y-72151904D01*
X79672380Y-71913809D01*
X79720000Y-71818571D01*
X79767619Y-71770952D01*
X79862857Y-71723333D01*
X79958095Y-71723333D01*
X80100952Y-71770952D01*
X80672380Y-72342380D01*
X80672380Y-71723333D01*
M02*
