G04 #@! TF.GenerationSoftware,KiCad,Pcbnew,(5.1.2)-1*
G04 #@! TF.CreationDate,2019-06-17T20:55:27+03:00*
G04 #@! TF.ProjectId,esp8266_minimal_hw,65737038-3236-4365-9f6d-696e696d616c,rev?*
G04 #@! TF.SameCoordinates,Original*
G04 #@! TF.FileFunction,Copper,L1,Top*
G04 #@! TF.FilePolarity,Positive*
%FSLAX46Y46*%
G04 Gerber Fmt 4.6, Leading zero omitted, Abs format (unit mm)*
G04 Created by KiCad (PCBNEW (5.1.2)-1) date 2019-06-17 20:55:27*
%MOMM*%
%LPD*%
G04 APERTURE LIST*
%ADD10R,1.700000X1.700000*%
%ADD11C,4.000000*%
%ADD12R,2.500000X1.000000*%
%ADD13R,1.000000X1.800000*%
%ADD14O,1.700000X1.700000*%
%ADD15C,0.800000*%
%ADD16C,0.250000*%
%ADD17C,0.254000*%
G04 APERTURE END LIST*
D10*
X87630000Y-72390000D03*
D11*
X92710000Y-72390000D03*
X77470000Y-72390000D03*
D12*
X92700000Y-47365000D03*
X92700000Y-49365000D03*
X92700000Y-51365000D03*
X92700000Y-53365000D03*
X92700000Y-55365000D03*
X92700000Y-57365000D03*
X92700000Y-59365000D03*
X92700000Y-61365000D03*
D13*
X90100000Y-62865000D03*
X88100000Y-62865000D03*
X86100000Y-62865000D03*
X84100000Y-62865000D03*
X82100000Y-62865000D03*
X80100000Y-62865000D03*
D12*
X77500000Y-61365000D03*
X77500000Y-59365000D03*
X77500000Y-57365000D03*
X77500000Y-55365000D03*
X77500000Y-53365000D03*
X77500000Y-51365000D03*
X77500000Y-49365000D03*
X77500000Y-47365000D03*
D14*
X92710000Y-66040000D03*
X92710000Y-68580000D03*
X90170000Y-66040000D03*
X90170000Y-68580000D03*
X87630000Y-66040000D03*
X87630000Y-68580000D03*
X85090000Y-66040000D03*
X85090000Y-68580000D03*
X82550000Y-66040000D03*
X82550000Y-68580000D03*
X80010000Y-66040000D03*
X80010000Y-68580000D03*
X77470000Y-66040000D03*
D10*
X77470000Y-68580000D03*
X82550000Y-72390000D03*
D15*
X77470000Y-63500000D03*
X90170000Y-57150000D03*
X81999999Y-60960000D03*
X92710000Y-63500000D03*
X90170000Y-55880000D03*
X80010000Y-52070000D03*
X83820000Y-57150000D03*
X90170000Y-53340000D03*
X81280000Y-46990000D03*
X90170000Y-47103666D03*
X83820000Y-46990000D03*
X80502100Y-54850178D03*
D16*
X77470000Y-61395000D02*
X77500000Y-61365000D01*
X77470000Y-63500000D02*
X77470000Y-61395000D01*
X91210001Y-58190001D02*
X90170000Y-57150000D01*
X92700000Y-59365000D02*
X92385000Y-59365000D01*
X92385000Y-59365000D02*
X91210001Y-58190001D01*
X81999999Y-58970001D02*
X81999999Y-60960000D01*
X82005001Y-58964999D02*
X81999999Y-58970001D01*
X82005001Y-46641999D02*
X82005001Y-58964999D01*
X81628001Y-46264999D02*
X82005001Y-46641999D01*
X75924999Y-46604999D02*
X76264999Y-46264999D01*
X79983589Y-50190001D02*
X75989999Y-50190001D01*
X75989999Y-50190001D02*
X75924999Y-50125001D01*
X78250000Y-53365000D02*
X79000000Y-54115000D01*
X77500000Y-53365000D02*
X78250000Y-53365000D01*
X76264999Y-46264999D02*
X81628001Y-46264999D01*
X79000000Y-54115000D02*
X80074989Y-54115000D01*
X80824989Y-53365000D02*
X80824989Y-51031401D01*
X75924999Y-50125001D02*
X75924999Y-46604999D01*
X80074989Y-54115000D02*
X80824989Y-53365000D01*
X80824989Y-51031401D02*
X79983589Y-50190001D01*
X91950000Y-53365000D02*
X90655000Y-52070000D01*
X92700000Y-53365000D02*
X91950000Y-53365000D01*
X90655000Y-52070000D02*
X89536410Y-52070000D01*
X89536410Y-52070000D02*
X89350010Y-52256400D01*
X89350010Y-52256400D02*
X89350010Y-60960000D01*
X91860001Y-65190001D02*
X92710000Y-66040000D01*
X91124999Y-64454999D02*
X91860001Y-65190001D01*
X91124999Y-61914999D02*
X91124999Y-64454999D01*
X90170000Y-60960000D02*
X91124999Y-61914999D01*
X89350010Y-60960000D02*
X90170000Y-60960000D01*
X92700000Y-51365000D02*
X89605000Y-51365000D01*
X89605000Y-51365000D02*
X88900000Y-52070000D01*
X88900000Y-61679998D02*
X88925001Y-61704999D01*
X88900000Y-52070000D02*
X88900000Y-61679998D01*
X91534999Y-67404999D02*
X91860001Y-67730001D01*
X91534999Y-65665997D02*
X91534999Y-67404999D01*
X90734001Y-64864999D02*
X91534999Y-65665997D01*
X91860001Y-67730001D02*
X92710000Y-68580000D01*
X88925001Y-63675003D02*
X90114997Y-64864999D01*
X90114997Y-64864999D02*
X90734001Y-64864999D01*
X88925001Y-61704999D02*
X88925001Y-63675003D01*
X92700000Y-61365000D02*
X92700000Y-63490000D01*
X92700000Y-63490000D02*
X92710000Y-63500000D01*
X91950000Y-47365000D02*
X91575000Y-46990000D01*
X92700000Y-47365000D02*
X91950000Y-47365000D01*
X92700000Y-47365000D02*
X91815000Y-47365000D01*
X91950000Y-47365000D02*
X90963666Y-46378666D01*
X90963666Y-46378666D02*
X85701334Y-46378666D01*
X85701334Y-46378666D02*
X85090000Y-46990000D01*
X88994999Y-67404999D02*
X89320001Y-67730001D01*
X89320001Y-67730001D02*
X90170000Y-68580000D01*
X88994999Y-65665997D02*
X88994999Y-67404999D01*
X86925001Y-63595999D02*
X88994999Y-65665997D01*
X85090000Y-59690000D02*
X86925001Y-61525001D01*
X86925001Y-61525001D02*
X86925001Y-63595999D01*
X85090000Y-46990000D02*
X85090000Y-59690000D01*
X90465000Y-55880000D02*
X90170000Y-55880000D01*
X92700000Y-57365000D02*
X91950000Y-57365000D01*
X91950000Y-57365000D02*
X90465000Y-55880000D01*
X77500000Y-51365000D02*
X79305000Y-51365000D01*
X79305000Y-51365000D02*
X80010000Y-52070000D01*
X86780001Y-67730001D02*
X87630000Y-68580000D01*
X86454999Y-67404999D02*
X86780001Y-67730001D01*
X86454999Y-65205001D02*
X86454999Y-67404999D01*
X85274999Y-64025001D02*
X86454999Y-65205001D01*
X85274999Y-62054997D02*
X85274999Y-64025001D01*
X83820000Y-60599998D02*
X85274999Y-62054997D01*
X83820000Y-57150000D02*
X83820000Y-60599998D01*
X90170000Y-53585000D02*
X90170000Y-53340000D01*
X92700000Y-55365000D02*
X91950000Y-55365000D01*
X91950000Y-55365000D02*
X90170000Y-53585000D01*
X78625000Y-46990000D02*
X81280000Y-46990000D01*
X77500000Y-47365000D02*
X78250000Y-47365000D01*
X78250000Y-47365000D02*
X78625000Y-46990000D01*
X90170000Y-47585000D02*
X90170000Y-47103666D01*
X92700000Y-49365000D02*
X91950000Y-49365000D01*
X91950000Y-49365000D02*
X90170000Y-47585000D01*
X82550000Y-64837919D02*
X82550000Y-66040000D01*
X82925001Y-64462918D02*
X82550000Y-64837919D01*
X82925001Y-47884999D02*
X82925001Y-64462918D01*
X83820000Y-46990000D02*
X82925001Y-47884999D01*
X80010000Y-64837919D02*
X80010000Y-66040000D01*
X79274999Y-64102918D02*
X80010000Y-64837919D01*
X79274999Y-58389999D02*
X79274999Y-64102918D01*
X78250000Y-57365000D02*
X79274999Y-58389999D01*
X77500000Y-57365000D02*
X78250000Y-57365000D01*
X78834999Y-67404999D02*
X79160001Y-67730001D01*
X77095997Y-67404999D02*
X78834999Y-67404999D01*
X75924999Y-66234001D02*
X77095997Y-67404999D01*
X79160001Y-67730001D02*
X80010000Y-68580000D01*
X75924999Y-60190001D02*
X75924999Y-66234001D01*
X76750000Y-59365000D02*
X75924999Y-60190001D01*
X77500000Y-59365000D02*
X76750000Y-59365000D01*
X77500000Y-55365000D02*
X79987278Y-55365000D01*
X79987278Y-55365000D02*
X80502100Y-54850178D01*
X77500000Y-48615000D02*
X77855000Y-48260000D01*
X77500000Y-49365000D02*
X77500000Y-48615000D01*
X77855000Y-48260000D02*
X81280000Y-48260000D01*
X77470000Y-69680000D02*
X77470000Y-68580000D01*
X77545001Y-69755001D02*
X77470000Y-69680000D01*
X80574001Y-69755001D02*
X77545001Y-69755001D01*
X81274999Y-69054003D02*
X80574001Y-69755001D01*
X81274999Y-49535001D02*
X81274999Y-69054003D01*
X81280000Y-49530000D02*
X81274999Y-49535001D01*
X81280000Y-48260000D02*
X81280000Y-49530000D01*
D17*
G36*
X94590000Y-70543547D02*
G01*
X94389715Y-70343262D01*
X93958141Y-70054893D01*
X93478601Y-69856261D01*
X93474151Y-69855376D01*
X93539014Y-69820706D01*
X93765134Y-69635134D01*
X93950706Y-69409014D01*
X94088599Y-69151034D01*
X94173513Y-68871111D01*
X94202185Y-68580000D01*
X94173513Y-68288889D01*
X94088599Y-68008966D01*
X93950706Y-67750986D01*
X93765134Y-67524866D01*
X93539014Y-67339294D01*
X93484209Y-67310000D01*
X93539014Y-67280706D01*
X93765134Y-67095134D01*
X93950706Y-66869014D01*
X94088599Y-66611034D01*
X94173513Y-66331111D01*
X94202185Y-66040000D01*
X94173513Y-65748889D01*
X94088599Y-65468966D01*
X93950706Y-65210986D01*
X93765134Y-64984866D01*
X93539014Y-64799294D01*
X93281034Y-64661401D01*
X93001111Y-64576487D01*
X92782950Y-64555000D01*
X92637050Y-64555000D01*
X92418889Y-64576487D01*
X92344005Y-64599203D01*
X91884999Y-64140198D01*
X91884999Y-62501686D01*
X92414250Y-62500000D01*
X92573000Y-62341250D01*
X92573000Y-61492000D01*
X92827000Y-61492000D01*
X92827000Y-62341250D01*
X92985750Y-62500000D01*
X93950000Y-62503072D01*
X94074482Y-62490812D01*
X94194180Y-62454502D01*
X94304494Y-62395537D01*
X94401185Y-62316185D01*
X94480537Y-62219494D01*
X94539502Y-62109180D01*
X94575812Y-61989482D01*
X94588072Y-61865000D01*
X94585000Y-61650750D01*
X94426250Y-61492000D01*
X92827000Y-61492000D01*
X92573000Y-61492000D01*
X92553000Y-61492000D01*
X92553000Y-61238000D01*
X92573000Y-61238000D01*
X92573000Y-61218000D01*
X92827000Y-61218000D01*
X92827000Y-61238000D01*
X94426250Y-61238000D01*
X94585000Y-61079250D01*
X94588072Y-60865000D01*
X94575812Y-60740518D01*
X94539502Y-60620820D01*
X94480537Y-60510506D01*
X94401185Y-60413815D01*
X94341704Y-60365000D01*
X94401185Y-60316185D01*
X94480537Y-60219494D01*
X94539502Y-60109180D01*
X94575812Y-59989482D01*
X94588072Y-59865000D01*
X94588072Y-58865000D01*
X94575812Y-58740518D01*
X94539502Y-58620820D01*
X94480537Y-58510506D01*
X94401185Y-58413815D01*
X94341704Y-58365000D01*
X94401185Y-58316185D01*
X94480537Y-58219494D01*
X94539502Y-58109180D01*
X94575812Y-57989482D01*
X94588072Y-57865000D01*
X94588072Y-56865000D01*
X94575812Y-56740518D01*
X94539502Y-56620820D01*
X94480537Y-56510506D01*
X94401185Y-56413815D01*
X94341704Y-56365000D01*
X94401185Y-56316185D01*
X94480537Y-56219494D01*
X94539502Y-56109180D01*
X94575812Y-55989482D01*
X94588072Y-55865000D01*
X94588072Y-54865000D01*
X94575812Y-54740518D01*
X94539502Y-54620820D01*
X94480537Y-54510506D01*
X94401185Y-54413815D01*
X94341704Y-54365000D01*
X94401185Y-54316185D01*
X94480537Y-54219494D01*
X94539502Y-54109180D01*
X94575812Y-53989482D01*
X94588072Y-53865000D01*
X94588072Y-52865000D01*
X94575812Y-52740518D01*
X94539502Y-52620820D01*
X94480537Y-52510506D01*
X94401185Y-52413815D01*
X94341704Y-52365000D01*
X94401185Y-52316185D01*
X94480537Y-52219494D01*
X94539502Y-52109180D01*
X94575812Y-51989482D01*
X94588072Y-51865000D01*
X94588072Y-50865000D01*
X94575812Y-50740518D01*
X94539502Y-50620820D01*
X94480537Y-50510506D01*
X94401185Y-50413815D01*
X94341704Y-50365000D01*
X94401185Y-50316185D01*
X94480537Y-50219494D01*
X94539502Y-50109180D01*
X94575812Y-49989482D01*
X94588072Y-49865000D01*
X94588072Y-48865000D01*
X94575812Y-48740518D01*
X94539502Y-48620820D01*
X94480537Y-48510506D01*
X94401185Y-48413815D01*
X94341704Y-48365000D01*
X94401185Y-48316185D01*
X94480537Y-48219494D01*
X94539502Y-48109180D01*
X94575812Y-47989482D01*
X94588072Y-47865000D01*
X94588072Y-46865000D01*
X94575812Y-46740518D01*
X94539502Y-46620820D01*
X94480537Y-46510506D01*
X94401185Y-46413815D01*
X94304494Y-46334463D01*
X94194180Y-46275498D01*
X94074482Y-46239188D01*
X93950000Y-46226928D01*
X91886729Y-46226928D01*
X91527470Y-45867668D01*
X91510508Y-45847000D01*
X94590001Y-45847000D01*
X94590000Y-70543547D01*
X94590000Y-70543547D01*
G37*
X94590000Y-70543547D02*
X94389715Y-70343262D01*
X93958141Y-70054893D01*
X93478601Y-69856261D01*
X93474151Y-69855376D01*
X93539014Y-69820706D01*
X93765134Y-69635134D01*
X93950706Y-69409014D01*
X94088599Y-69151034D01*
X94173513Y-68871111D01*
X94202185Y-68580000D01*
X94173513Y-68288889D01*
X94088599Y-68008966D01*
X93950706Y-67750986D01*
X93765134Y-67524866D01*
X93539014Y-67339294D01*
X93484209Y-67310000D01*
X93539014Y-67280706D01*
X93765134Y-67095134D01*
X93950706Y-66869014D01*
X94088599Y-66611034D01*
X94173513Y-66331111D01*
X94202185Y-66040000D01*
X94173513Y-65748889D01*
X94088599Y-65468966D01*
X93950706Y-65210986D01*
X93765134Y-64984866D01*
X93539014Y-64799294D01*
X93281034Y-64661401D01*
X93001111Y-64576487D01*
X92782950Y-64555000D01*
X92637050Y-64555000D01*
X92418889Y-64576487D01*
X92344005Y-64599203D01*
X91884999Y-64140198D01*
X91884999Y-62501686D01*
X92414250Y-62500000D01*
X92573000Y-62341250D01*
X92573000Y-61492000D01*
X92827000Y-61492000D01*
X92827000Y-62341250D01*
X92985750Y-62500000D01*
X93950000Y-62503072D01*
X94074482Y-62490812D01*
X94194180Y-62454502D01*
X94304494Y-62395537D01*
X94401185Y-62316185D01*
X94480537Y-62219494D01*
X94539502Y-62109180D01*
X94575812Y-61989482D01*
X94588072Y-61865000D01*
X94585000Y-61650750D01*
X94426250Y-61492000D01*
X92827000Y-61492000D01*
X92573000Y-61492000D01*
X92553000Y-61492000D01*
X92553000Y-61238000D01*
X92573000Y-61238000D01*
X92573000Y-61218000D01*
X92827000Y-61218000D01*
X92827000Y-61238000D01*
X94426250Y-61238000D01*
X94585000Y-61079250D01*
X94588072Y-60865000D01*
X94575812Y-60740518D01*
X94539502Y-60620820D01*
X94480537Y-60510506D01*
X94401185Y-60413815D01*
X94341704Y-60365000D01*
X94401185Y-60316185D01*
X94480537Y-60219494D01*
X94539502Y-60109180D01*
X94575812Y-59989482D01*
X94588072Y-59865000D01*
X94588072Y-58865000D01*
X94575812Y-58740518D01*
X94539502Y-58620820D01*
X94480537Y-58510506D01*
X94401185Y-58413815D01*
X94341704Y-58365000D01*
X94401185Y-58316185D01*
X94480537Y-58219494D01*
X94539502Y-58109180D01*
X94575812Y-57989482D01*
X94588072Y-57865000D01*
X94588072Y-56865000D01*
X94575812Y-56740518D01*
X94539502Y-56620820D01*
X94480537Y-56510506D01*
X94401185Y-56413815D01*
X94341704Y-56365000D01*
X94401185Y-56316185D01*
X94480537Y-56219494D01*
X94539502Y-56109180D01*
X94575812Y-55989482D01*
X94588072Y-55865000D01*
X94588072Y-54865000D01*
X94575812Y-54740518D01*
X94539502Y-54620820D01*
X94480537Y-54510506D01*
X94401185Y-54413815D01*
X94341704Y-54365000D01*
X94401185Y-54316185D01*
X94480537Y-54219494D01*
X94539502Y-54109180D01*
X94575812Y-53989482D01*
X94588072Y-53865000D01*
X94588072Y-52865000D01*
X94575812Y-52740518D01*
X94539502Y-52620820D01*
X94480537Y-52510506D01*
X94401185Y-52413815D01*
X94341704Y-52365000D01*
X94401185Y-52316185D01*
X94480537Y-52219494D01*
X94539502Y-52109180D01*
X94575812Y-51989482D01*
X94588072Y-51865000D01*
X94588072Y-50865000D01*
X94575812Y-50740518D01*
X94539502Y-50620820D01*
X94480537Y-50510506D01*
X94401185Y-50413815D01*
X94341704Y-50365000D01*
X94401185Y-50316185D01*
X94480537Y-50219494D01*
X94539502Y-50109180D01*
X94575812Y-49989482D01*
X94588072Y-49865000D01*
X94588072Y-48865000D01*
X94575812Y-48740518D01*
X94539502Y-48620820D01*
X94480537Y-48510506D01*
X94401185Y-48413815D01*
X94341704Y-48365000D01*
X94401185Y-48316185D01*
X94480537Y-48219494D01*
X94539502Y-48109180D01*
X94575812Y-47989482D01*
X94588072Y-47865000D01*
X94588072Y-46865000D01*
X94575812Y-46740518D01*
X94539502Y-46620820D01*
X94480537Y-46510506D01*
X94401185Y-46413815D01*
X94304494Y-46334463D01*
X94194180Y-46275498D01*
X94074482Y-46239188D01*
X93950000Y-46226928D01*
X91886729Y-46226928D01*
X91527470Y-45867668D01*
X91510508Y-45847000D01*
X94590001Y-45847000D01*
X94590000Y-70543547D01*
G36*
X90297000Y-65913000D02*
G01*
X90317000Y-65913000D01*
X90317000Y-66167000D01*
X90297000Y-66167000D01*
X90297000Y-66187000D01*
X90043000Y-66187000D01*
X90043000Y-66167000D01*
X90023000Y-66167000D01*
X90023000Y-65913000D01*
X90043000Y-65913000D01*
X90043000Y-65893000D01*
X90297000Y-65893000D01*
X90297000Y-65913000D01*
X90297000Y-65913000D01*
G37*
X90297000Y-65913000D02*
X90317000Y-65913000D01*
X90317000Y-66167000D01*
X90297000Y-66167000D01*
X90297000Y-66187000D01*
X90043000Y-66187000D01*
X90043000Y-66167000D01*
X90023000Y-66167000D01*
X90023000Y-65913000D01*
X90043000Y-65913000D01*
X90043000Y-65893000D01*
X90297000Y-65893000D01*
X90297000Y-65913000D01*
M02*
