G04 #@! TF.GenerationSoftware,KiCad,Pcbnew,(5.1.2)-1*
G04 #@! TF.CreationDate,2019-06-17T20:55:27+03:00*
G04 #@! TF.ProjectId,esp8266_minimal_hw,65737038-3236-4365-9f6d-696e696d616c,rev?*
G04 #@! TF.SameCoordinates,Original*
G04 #@! TF.FileFunction,Legend,Bot*
G04 #@! TF.FilePolarity,Positive*
%FSLAX46Y46*%
G04 Gerber Fmt 4.6, Leading zero omitted, Abs format (unit mm)*
G04 Created by KiCad (PCBNEW (5.1.2)-1) date 2019-06-17 20:55:27*
%MOMM*%
%LPD*%
G04 APERTURE LIST*
%ADD10C,0.120000*%
%ADD11C,0.150000*%
G04 APERTURE END LIST*
D10*
X91440000Y-64770000D02*
X86360000Y-64770000D01*
X91440000Y-69850000D02*
X91440000Y-64770000D01*
X81280000Y-69850000D02*
X91440000Y-69850000D01*
X81280000Y-64770000D02*
X81280000Y-69850000D01*
X88900000Y-64770000D02*
X81280000Y-64770000D01*
X81280000Y-73660000D02*
X83820000Y-73660000D01*
X81280000Y-71120000D02*
X81280000Y-73660000D01*
X83820000Y-71120000D02*
X81280000Y-71120000D01*
X83820000Y-72390000D02*
X83820000Y-71120000D01*
X86360000Y-72390000D02*
X83820000Y-72390000D01*
X86360000Y-73660000D02*
X86360000Y-72390000D01*
X88900000Y-73660000D02*
X86360000Y-73660000D01*
X88900000Y-71120000D02*
X88900000Y-73660000D01*
X86360000Y-71120000D02*
X88900000Y-71120000D01*
D11*
X85280476Y-71572380D02*
X85851904Y-71572380D01*
X85566190Y-71572380D02*
X85566190Y-70572380D01*
X85661428Y-70715238D01*
X85756666Y-70810476D01*
X85851904Y-70858095D01*
X84375714Y-70572380D02*
X84851904Y-70572380D01*
X84899523Y-71048571D01*
X84851904Y-71000952D01*
X84756666Y-70953333D01*
X84518571Y-70953333D01*
X84423333Y-71000952D01*
X84375714Y-71048571D01*
X84328095Y-71143809D01*
X84328095Y-71381904D01*
X84375714Y-71477142D01*
X84423333Y-71524761D01*
X84518571Y-71572380D01*
X84756666Y-71572380D01*
X84851904Y-71524761D01*
X84899523Y-71477142D01*
X85280476Y-74112380D02*
X85851904Y-74112380D01*
X85566190Y-74112380D02*
X85566190Y-73112380D01*
X85661428Y-73255238D01*
X85756666Y-73350476D01*
X85851904Y-73398095D01*
X84423333Y-73112380D02*
X84613809Y-73112380D01*
X84709047Y-73160000D01*
X84756666Y-73207619D01*
X84851904Y-73350476D01*
X84899523Y-73540952D01*
X84899523Y-73921904D01*
X84851904Y-74017142D01*
X84804285Y-74064761D01*
X84709047Y-74112380D01*
X84518571Y-74112380D01*
X84423333Y-74064761D01*
X84375714Y-74017142D01*
X84328095Y-73921904D01*
X84328095Y-73683809D01*
X84375714Y-73588571D01*
X84423333Y-73540952D01*
X84518571Y-73493333D01*
X84709047Y-73493333D01*
X84804285Y-73540952D01*
X84851904Y-73588571D01*
X84899523Y-73683809D01*
X89970952Y-54395714D02*
X89780476Y-55062380D01*
X89590000Y-54586190D01*
X89399523Y-55062380D01*
X89209047Y-54395714D01*
X88923333Y-54395714D02*
X88732857Y-55062380D01*
X88542380Y-54586190D01*
X88351904Y-55062380D01*
X88161428Y-54395714D01*
X87875714Y-54395714D02*
X87685238Y-55062380D01*
X87494761Y-54586190D01*
X87304285Y-55062380D01*
X87113809Y-54395714D01*
X86732857Y-54967142D02*
X86685238Y-55014761D01*
X86732857Y-55062380D01*
X86780476Y-55014761D01*
X86732857Y-54967142D01*
X86732857Y-55062380D01*
X86256666Y-55062380D02*
X86256666Y-54062380D01*
X86256666Y-54443333D02*
X86161428Y-54395714D01*
X85970952Y-54395714D01*
X85875714Y-54443333D01*
X85828095Y-54490952D01*
X85780476Y-54586190D01*
X85780476Y-54871904D01*
X85828095Y-54967142D01*
X85875714Y-55014761D01*
X85970952Y-55062380D01*
X86161428Y-55062380D01*
X86256666Y-55014761D01*
X85209047Y-55062380D02*
X85304285Y-55014761D01*
X85351904Y-54967142D01*
X85399523Y-54871904D01*
X85399523Y-54586190D01*
X85351904Y-54490952D01*
X85304285Y-54443333D01*
X85209047Y-54395714D01*
X85066190Y-54395714D01*
X84970952Y-54443333D01*
X84923333Y-54490952D01*
X84875714Y-54586190D01*
X84875714Y-54871904D01*
X84923333Y-54967142D01*
X84970952Y-55014761D01*
X85066190Y-55062380D01*
X85209047Y-55062380D01*
X84018571Y-54395714D02*
X84018571Y-55205238D01*
X84066190Y-55300476D01*
X84113809Y-55348095D01*
X84209047Y-55395714D01*
X84351904Y-55395714D01*
X84447142Y-55348095D01*
X84018571Y-55014761D02*
X84113809Y-55062380D01*
X84304285Y-55062380D01*
X84399523Y-55014761D01*
X84447142Y-54967142D01*
X84494761Y-54871904D01*
X84494761Y-54586190D01*
X84447142Y-54490952D01*
X84399523Y-54443333D01*
X84304285Y-54395714D01*
X84113809Y-54395714D01*
X84018571Y-54443333D01*
X83637619Y-54395714D02*
X83113809Y-54395714D01*
X83637619Y-55062380D01*
X83113809Y-55062380D01*
X82304285Y-55062380D02*
X82304285Y-54538571D01*
X82351904Y-54443333D01*
X82447142Y-54395714D01*
X82637619Y-54395714D01*
X82732857Y-54443333D01*
X82304285Y-55014761D02*
X82399523Y-55062380D01*
X82637619Y-55062380D01*
X82732857Y-55014761D01*
X82780476Y-54919523D01*
X82780476Y-54824285D01*
X82732857Y-54729047D01*
X82637619Y-54681428D01*
X82399523Y-54681428D01*
X82304285Y-54633809D01*
X81828095Y-54967142D02*
X81780476Y-55014761D01*
X81828095Y-55062380D01*
X81875714Y-55014761D01*
X81828095Y-54967142D01*
X81828095Y-55062380D01*
X81351904Y-55062380D02*
X81351904Y-54395714D01*
X81351904Y-54586190D02*
X81304285Y-54490952D01*
X81256666Y-54443333D01*
X81161428Y-54395714D01*
X81066190Y-54395714D01*
X80590000Y-55062380D02*
X80685238Y-55014761D01*
X80732857Y-54967142D01*
X80780476Y-54871904D01*
X80780476Y-54586190D01*
X80732857Y-54490952D01*
X80685238Y-54443333D01*
X80590000Y-54395714D01*
X80447142Y-54395714D01*
X80351904Y-54443333D01*
X80304285Y-54490952D01*
X80256666Y-54586190D01*
X80256666Y-54871904D01*
X80304285Y-54967142D01*
X80351904Y-55014761D01*
X80447142Y-55062380D01*
X80590000Y-55062380D01*
X91518571Y-61190714D02*
X91518571Y-61857380D01*
X91756666Y-60809761D02*
X91994761Y-61524047D01*
X91375714Y-61524047D01*
X89709047Y-60905000D02*
X89804285Y-60857380D01*
X89947142Y-60857380D01*
X90090000Y-60905000D01*
X90185238Y-61000238D01*
X90232857Y-61095476D01*
X90280476Y-61285952D01*
X90280476Y-61428809D01*
X90232857Y-61619285D01*
X90185238Y-61714523D01*
X90090000Y-61809761D01*
X89947142Y-61857380D01*
X89851904Y-61857380D01*
X89709047Y-61809761D01*
X89661428Y-61762142D01*
X89661428Y-61428809D01*
X89851904Y-61428809D01*
X88518571Y-60952619D02*
X88470952Y-60905000D01*
X88375714Y-60857380D01*
X88137619Y-60857380D01*
X88042380Y-60905000D01*
X87994761Y-60952619D01*
X87947142Y-61047857D01*
X87947142Y-61143095D01*
X87994761Y-61285952D01*
X88566190Y-61857380D01*
X87947142Y-61857380D01*
X86566190Y-60857380D02*
X86470952Y-60857380D01*
X86375714Y-60905000D01*
X86328095Y-60952619D01*
X86280476Y-61047857D01*
X86232857Y-61238333D01*
X86232857Y-61476428D01*
X86280476Y-61666904D01*
X86328095Y-61762142D01*
X86375714Y-61809761D01*
X86470952Y-61857380D01*
X86566190Y-61857380D01*
X86661428Y-61809761D01*
X86709047Y-61762142D01*
X86756666Y-61666904D01*
X86804285Y-61476428D01*
X86804285Y-61238333D01*
X86756666Y-61047857D01*
X86709047Y-60952619D01*
X86661428Y-60905000D01*
X86566190Y-60857380D01*
X84470952Y-61857380D02*
X84804285Y-61381190D01*
X85042380Y-61857380D02*
X85042380Y-60857380D01*
X84661428Y-60857380D01*
X84566190Y-60905000D01*
X84518571Y-60952619D01*
X84470952Y-61047857D01*
X84470952Y-61190714D01*
X84518571Y-61285952D01*
X84566190Y-61333571D01*
X84661428Y-61381190D01*
X85042380Y-61381190D01*
X84137619Y-60857380D02*
X83470952Y-61857380D01*
X83470952Y-60857380D02*
X84137619Y-61857380D01*
X81804285Y-61857380D02*
X82375714Y-61857380D01*
X82090000Y-61857380D02*
X82090000Y-60857380D01*
X82185238Y-61000238D01*
X82280476Y-61095476D01*
X82375714Y-61143095D01*
X81423333Y-60952619D02*
X81375714Y-60905000D01*
X81280476Y-60857380D01*
X81042380Y-60857380D01*
X80947142Y-60905000D01*
X80899523Y-60952619D01*
X80851904Y-61047857D01*
X80851904Y-61143095D01*
X80899523Y-61285952D01*
X81470952Y-61857380D01*
X80851904Y-61857380D01*
X79137619Y-61857380D02*
X79709047Y-61857380D01*
X79423333Y-61857380D02*
X79423333Y-60857380D01*
X79518571Y-61000238D01*
X79613809Y-61095476D01*
X79709047Y-61143095D01*
X78280476Y-61190714D02*
X78280476Y-61857380D01*
X78518571Y-60809761D02*
X78756666Y-61524047D01*
X78137619Y-61524047D01*
X92185238Y-62507380D02*
X92661428Y-62507380D01*
X92709047Y-62983571D01*
X92661428Y-62935952D01*
X92566190Y-62888333D01*
X92328095Y-62888333D01*
X92232857Y-62935952D01*
X92185238Y-62983571D01*
X92137619Y-63078809D01*
X92137619Y-63316904D01*
X92185238Y-63412142D01*
X92232857Y-63459761D01*
X92328095Y-63507380D01*
X92566190Y-63507380D01*
X92661428Y-63459761D01*
X92709047Y-63412142D01*
X91090000Y-62507380D02*
X90518571Y-62507380D01*
X90804285Y-63507380D02*
X90804285Y-62507380D01*
X90280476Y-62507380D02*
X89613809Y-63507380D01*
X89613809Y-62507380D02*
X90280476Y-63507380D01*
X88470952Y-63507380D02*
X88470952Y-62507380D01*
X88090000Y-62507380D01*
X87994761Y-62555000D01*
X87947142Y-62602619D01*
X87899523Y-62697857D01*
X87899523Y-62840714D01*
X87947142Y-62935952D01*
X87994761Y-62983571D01*
X88090000Y-63031190D01*
X88470952Y-63031190D01*
X87470952Y-63507380D02*
X87470952Y-62507380D01*
X87232857Y-62507380D01*
X87090000Y-62555000D01*
X86994761Y-62650238D01*
X86947142Y-62745476D01*
X86899523Y-62935952D01*
X86899523Y-63078809D01*
X86947142Y-63269285D01*
X86994761Y-63364523D01*
X87090000Y-63459761D01*
X87232857Y-63507380D01*
X87470952Y-63507380D01*
X85137619Y-63507380D02*
X85470952Y-63031190D01*
X85709047Y-63507380D02*
X85709047Y-62507380D01*
X85328095Y-62507380D01*
X85232857Y-62555000D01*
X85185238Y-62602619D01*
X85137619Y-62697857D01*
X85137619Y-62840714D01*
X85185238Y-62935952D01*
X85232857Y-62983571D01*
X85328095Y-63031190D01*
X85709047Y-63031190D01*
X84090000Y-62507380D02*
X83756666Y-63507380D01*
X83423333Y-62507380D01*
X82518571Y-63412142D02*
X82566190Y-63459761D01*
X82709047Y-63507380D01*
X82804285Y-63507380D01*
X82947142Y-63459761D01*
X83042380Y-63364523D01*
X83090000Y-63269285D01*
X83137619Y-63078809D01*
X83137619Y-62935952D01*
X83090000Y-62745476D01*
X83042380Y-62650238D01*
X82947142Y-62555000D01*
X82804285Y-62507380D01*
X82709047Y-62507380D01*
X82566190Y-62555000D01*
X82518571Y-62602619D01*
X80804285Y-63507380D02*
X81375714Y-63507380D01*
X81090000Y-63507380D02*
X81090000Y-62507380D01*
X81185238Y-62650238D01*
X81280476Y-62745476D01*
X81375714Y-62793095D01*
X80470952Y-62507380D02*
X79851904Y-62507380D01*
X80185238Y-62888333D01*
X80042380Y-62888333D01*
X79947142Y-62935952D01*
X79899523Y-62983571D01*
X79851904Y-63078809D01*
X79851904Y-63316904D01*
X79899523Y-63412142D01*
X79947142Y-63459761D01*
X80042380Y-63507380D01*
X80328095Y-63507380D01*
X80423333Y-63459761D01*
X80470952Y-63412142D01*
X78709047Y-63221666D02*
X78232857Y-63221666D01*
X78804285Y-63507380D02*
X78470952Y-62507380D01*
X78137619Y-63507380D01*
D10*
X87416734Y-48405142D02*
X88620862Y-48405142D01*
X87416734Y-50225142D02*
X88620862Y-50225142D01*
X87525319Y-58452292D02*
X88729447Y-58452292D01*
X87525319Y-60272292D02*
X88729447Y-60272292D01*
X82934564Y-48402500D02*
X81730436Y-48402500D01*
X82934564Y-50222500D02*
X81730436Y-50222500D01*
X81632082Y-58493217D02*
X82836210Y-58493217D01*
X81632082Y-60313217D02*
X82836210Y-60313217D01*
D11*
X88114424Y-51651648D02*
X88447758Y-51175458D01*
X88685853Y-51651648D02*
X88685853Y-50651648D01*
X88304900Y-50651648D01*
X88209662Y-50699268D01*
X88162043Y-50746887D01*
X88114424Y-50842125D01*
X88114424Y-50984982D01*
X88162043Y-51080220D01*
X88209662Y-51127839D01*
X88304900Y-51175458D01*
X88685853Y-51175458D01*
X87257281Y-50984982D02*
X87257281Y-51651648D01*
X87495377Y-50604029D02*
X87733472Y-51318315D01*
X87114424Y-51318315D01*
X87796666Y-57602380D02*
X88130000Y-57126190D01*
X88368095Y-57602380D02*
X88368095Y-56602380D01*
X87987142Y-56602380D01*
X87891904Y-56650000D01*
X87844285Y-56697619D01*
X87796666Y-56792857D01*
X87796666Y-56935714D01*
X87844285Y-57030952D01*
X87891904Y-57078571D01*
X87987142Y-57126190D01*
X88368095Y-57126190D01*
X87463333Y-56602380D02*
X86844285Y-56602380D01*
X87177619Y-56983333D01*
X87034761Y-56983333D01*
X86939523Y-57030952D01*
X86891904Y-57078571D01*
X86844285Y-57173809D01*
X86844285Y-57411904D01*
X86891904Y-57507142D01*
X86939523Y-57554761D01*
X87034761Y-57602380D01*
X87320476Y-57602380D01*
X87415714Y-57554761D01*
X87463333Y-57507142D01*
X82732893Y-51651648D02*
X83066227Y-51175458D01*
X83304322Y-51651648D02*
X83304322Y-50651648D01*
X82923369Y-50651648D01*
X82828131Y-50699268D01*
X82780512Y-50746887D01*
X82732893Y-50842125D01*
X82732893Y-50984982D01*
X82780512Y-51080220D01*
X82828131Y-51127839D01*
X82923369Y-51175458D01*
X83304322Y-51175458D01*
X82351941Y-50746887D02*
X82304322Y-50699268D01*
X82209084Y-50651648D01*
X81970988Y-50651648D01*
X81875750Y-50699268D01*
X81828131Y-50746887D01*
X81780512Y-50842125D01*
X81780512Y-50937363D01*
X81828131Y-51080220D01*
X82399560Y-51651648D01*
X81780512Y-51651648D01*
X82716666Y-57602380D02*
X83050000Y-57126190D01*
X83288095Y-57602380D02*
X83288095Y-56602380D01*
X82907142Y-56602380D01*
X82811904Y-56650000D01*
X82764285Y-56697619D01*
X82716666Y-56792857D01*
X82716666Y-56935714D01*
X82764285Y-57030952D01*
X82811904Y-57078571D01*
X82907142Y-57126190D01*
X83288095Y-57126190D01*
X81764285Y-57602380D02*
X82335714Y-57602380D01*
X82050000Y-57602380D02*
X82050000Y-56602380D01*
X82145238Y-56745238D01*
X82240476Y-56840476D01*
X82335714Y-56888095D01*
M02*
