G04 #@! TF.GenerationSoftware,KiCad,Pcbnew,(5.1.2)-1*
G04 #@! TF.CreationDate,2019-06-17T20:55:27+03:00*
G04 #@! TF.ProjectId,esp8266_minimal_hw,65737038-3236-4365-9f6d-696e696d616c,rev?*
G04 #@! TF.SameCoordinates,Original*
G04 #@! TF.FileFunction,Soldermask,Bot*
G04 #@! TF.FilePolarity,Negative*
%FSLAX46Y46*%
G04 Gerber Fmt 4.6, Leading zero omitted, Abs format (unit mm)*
G04 Created by KiCad (PCBNEW (5.1.2)-1) date 2019-06-17 20:55:27*
%MOMM*%
%LPD*%
G04 APERTURE LIST*
%ADD10C,0.100000*%
G04 APERTURE END LIST*
D10*
G36*
X93308254Y-70417818D02*
G01*
X93681511Y-70572426D01*
X93681513Y-70572427D01*
X94017436Y-70796884D01*
X94303116Y-71082564D01*
X94527574Y-71418489D01*
X94682182Y-71791746D01*
X94761000Y-72187993D01*
X94761000Y-72592007D01*
X94682182Y-72988254D01*
X94527574Y-73361511D01*
X94527573Y-73361513D01*
X94303116Y-73697436D01*
X94017436Y-73983116D01*
X93681513Y-74207573D01*
X93681512Y-74207574D01*
X93681511Y-74207574D01*
X93308254Y-74362182D01*
X92912007Y-74441000D01*
X92507993Y-74441000D01*
X92111746Y-74362182D01*
X91738489Y-74207574D01*
X91738488Y-74207574D01*
X91738487Y-74207573D01*
X91402564Y-73983116D01*
X91116884Y-73697436D01*
X90892427Y-73361513D01*
X90892426Y-73361511D01*
X90737818Y-72988254D01*
X90659000Y-72592007D01*
X90659000Y-72187993D01*
X90737818Y-71791746D01*
X90892426Y-71418489D01*
X91116884Y-71082564D01*
X91402564Y-70796884D01*
X91738487Y-70572427D01*
X91738489Y-70572426D01*
X92111746Y-70417818D01*
X92507993Y-70339000D01*
X92912007Y-70339000D01*
X93308254Y-70417818D01*
X93308254Y-70417818D01*
G37*
G36*
X78068254Y-70417818D02*
G01*
X78441511Y-70572426D01*
X78441513Y-70572427D01*
X78777436Y-70796884D01*
X79063116Y-71082564D01*
X79287574Y-71418489D01*
X79442182Y-71791746D01*
X79521000Y-72187993D01*
X79521000Y-72592007D01*
X79442182Y-72988254D01*
X79287574Y-73361511D01*
X79287573Y-73361513D01*
X79063116Y-73697436D01*
X78777436Y-73983116D01*
X78441513Y-74207573D01*
X78441512Y-74207574D01*
X78441511Y-74207574D01*
X78068254Y-74362182D01*
X77672007Y-74441000D01*
X77267993Y-74441000D01*
X76871746Y-74362182D01*
X76498489Y-74207574D01*
X76498488Y-74207574D01*
X76498487Y-74207573D01*
X76162564Y-73983116D01*
X75876884Y-73697436D01*
X75652427Y-73361513D01*
X75652426Y-73361511D01*
X75497818Y-72988254D01*
X75419000Y-72592007D01*
X75419000Y-72187993D01*
X75497818Y-71791746D01*
X75652426Y-71418489D01*
X75876884Y-71082564D01*
X76162564Y-70796884D01*
X76498487Y-70572427D01*
X76498489Y-70572426D01*
X76871746Y-70417818D01*
X77267993Y-70339000D01*
X77672007Y-70339000D01*
X78068254Y-70417818D01*
X78068254Y-70417818D01*
G37*
G36*
X83451000Y-73291000D02*
G01*
X81649000Y-73291000D01*
X81649000Y-71489000D01*
X83451000Y-71489000D01*
X83451000Y-73291000D01*
X83451000Y-73291000D01*
G37*
G36*
X88531000Y-73291000D02*
G01*
X86729000Y-73291000D01*
X86729000Y-71489000D01*
X88531000Y-71489000D01*
X88531000Y-73291000D01*
X88531000Y-73291000D01*
G37*
G36*
X85200443Y-67685519D02*
G01*
X85266627Y-67692037D01*
X85436466Y-67743557D01*
X85592991Y-67827222D01*
X85628729Y-67856552D01*
X85730186Y-67939814D01*
X85813448Y-68041271D01*
X85842778Y-68077009D01*
X85926443Y-68233534D01*
X85977963Y-68403373D01*
X85995359Y-68580000D01*
X85977963Y-68756627D01*
X85926443Y-68926466D01*
X85842778Y-69082991D01*
X85813448Y-69118729D01*
X85730186Y-69220186D01*
X85628729Y-69303448D01*
X85592991Y-69332778D01*
X85436466Y-69416443D01*
X85266627Y-69467963D01*
X85200442Y-69474482D01*
X85134260Y-69481000D01*
X85045740Y-69481000D01*
X84979558Y-69474482D01*
X84913373Y-69467963D01*
X84743534Y-69416443D01*
X84587009Y-69332778D01*
X84551271Y-69303448D01*
X84449814Y-69220186D01*
X84366552Y-69118729D01*
X84337222Y-69082991D01*
X84253557Y-68926466D01*
X84202037Y-68756627D01*
X84184641Y-68580000D01*
X84202037Y-68403373D01*
X84253557Y-68233534D01*
X84337222Y-68077009D01*
X84366552Y-68041271D01*
X84449814Y-67939814D01*
X84551271Y-67856552D01*
X84587009Y-67827222D01*
X84743534Y-67743557D01*
X84913373Y-67692037D01*
X84979557Y-67685519D01*
X85045740Y-67679000D01*
X85134260Y-67679000D01*
X85200443Y-67685519D01*
X85200443Y-67685519D01*
G37*
G36*
X78371000Y-69481000D02*
G01*
X76569000Y-69481000D01*
X76569000Y-67679000D01*
X78371000Y-67679000D01*
X78371000Y-69481000D01*
X78371000Y-69481000D01*
G37*
G36*
X80120443Y-67685519D02*
G01*
X80186627Y-67692037D01*
X80356466Y-67743557D01*
X80512991Y-67827222D01*
X80548729Y-67856552D01*
X80650186Y-67939814D01*
X80733448Y-68041271D01*
X80762778Y-68077009D01*
X80846443Y-68233534D01*
X80897963Y-68403373D01*
X80915359Y-68580000D01*
X80897963Y-68756627D01*
X80846443Y-68926466D01*
X80762778Y-69082991D01*
X80733448Y-69118729D01*
X80650186Y-69220186D01*
X80548729Y-69303448D01*
X80512991Y-69332778D01*
X80356466Y-69416443D01*
X80186627Y-69467963D01*
X80120442Y-69474482D01*
X80054260Y-69481000D01*
X79965740Y-69481000D01*
X79899558Y-69474482D01*
X79833373Y-69467963D01*
X79663534Y-69416443D01*
X79507009Y-69332778D01*
X79471271Y-69303448D01*
X79369814Y-69220186D01*
X79286552Y-69118729D01*
X79257222Y-69082991D01*
X79173557Y-68926466D01*
X79122037Y-68756627D01*
X79104641Y-68580000D01*
X79122037Y-68403373D01*
X79173557Y-68233534D01*
X79257222Y-68077009D01*
X79286552Y-68041271D01*
X79369814Y-67939814D01*
X79471271Y-67856552D01*
X79507009Y-67827222D01*
X79663534Y-67743557D01*
X79833373Y-67692037D01*
X79899557Y-67685519D01*
X79965740Y-67679000D01*
X80054260Y-67679000D01*
X80120443Y-67685519D01*
X80120443Y-67685519D01*
G37*
G36*
X82660443Y-67685519D02*
G01*
X82726627Y-67692037D01*
X82896466Y-67743557D01*
X83052991Y-67827222D01*
X83088729Y-67856552D01*
X83190186Y-67939814D01*
X83273448Y-68041271D01*
X83302778Y-68077009D01*
X83386443Y-68233534D01*
X83437963Y-68403373D01*
X83455359Y-68580000D01*
X83437963Y-68756627D01*
X83386443Y-68926466D01*
X83302778Y-69082991D01*
X83273448Y-69118729D01*
X83190186Y-69220186D01*
X83088729Y-69303448D01*
X83052991Y-69332778D01*
X82896466Y-69416443D01*
X82726627Y-69467963D01*
X82660442Y-69474482D01*
X82594260Y-69481000D01*
X82505740Y-69481000D01*
X82439558Y-69474482D01*
X82373373Y-69467963D01*
X82203534Y-69416443D01*
X82047009Y-69332778D01*
X82011271Y-69303448D01*
X81909814Y-69220186D01*
X81826552Y-69118729D01*
X81797222Y-69082991D01*
X81713557Y-68926466D01*
X81662037Y-68756627D01*
X81644641Y-68580000D01*
X81662037Y-68403373D01*
X81713557Y-68233534D01*
X81797222Y-68077009D01*
X81826552Y-68041271D01*
X81909814Y-67939814D01*
X82011271Y-67856552D01*
X82047009Y-67827222D01*
X82203534Y-67743557D01*
X82373373Y-67692037D01*
X82439557Y-67685519D01*
X82505740Y-67679000D01*
X82594260Y-67679000D01*
X82660443Y-67685519D01*
X82660443Y-67685519D01*
G37*
G36*
X87740443Y-67685519D02*
G01*
X87806627Y-67692037D01*
X87976466Y-67743557D01*
X88132991Y-67827222D01*
X88168729Y-67856552D01*
X88270186Y-67939814D01*
X88353448Y-68041271D01*
X88382778Y-68077009D01*
X88466443Y-68233534D01*
X88517963Y-68403373D01*
X88535359Y-68580000D01*
X88517963Y-68756627D01*
X88466443Y-68926466D01*
X88382778Y-69082991D01*
X88353448Y-69118729D01*
X88270186Y-69220186D01*
X88168729Y-69303448D01*
X88132991Y-69332778D01*
X87976466Y-69416443D01*
X87806627Y-69467963D01*
X87740442Y-69474482D01*
X87674260Y-69481000D01*
X87585740Y-69481000D01*
X87519558Y-69474482D01*
X87453373Y-69467963D01*
X87283534Y-69416443D01*
X87127009Y-69332778D01*
X87091271Y-69303448D01*
X86989814Y-69220186D01*
X86906552Y-69118729D01*
X86877222Y-69082991D01*
X86793557Y-68926466D01*
X86742037Y-68756627D01*
X86724641Y-68580000D01*
X86742037Y-68403373D01*
X86793557Y-68233534D01*
X86877222Y-68077009D01*
X86906552Y-68041271D01*
X86989814Y-67939814D01*
X87091271Y-67856552D01*
X87127009Y-67827222D01*
X87283534Y-67743557D01*
X87453373Y-67692037D01*
X87519557Y-67685519D01*
X87585740Y-67679000D01*
X87674260Y-67679000D01*
X87740443Y-67685519D01*
X87740443Y-67685519D01*
G37*
G36*
X90280443Y-67685519D02*
G01*
X90346627Y-67692037D01*
X90516466Y-67743557D01*
X90672991Y-67827222D01*
X90708729Y-67856552D01*
X90810186Y-67939814D01*
X90893448Y-68041271D01*
X90922778Y-68077009D01*
X91006443Y-68233534D01*
X91057963Y-68403373D01*
X91075359Y-68580000D01*
X91057963Y-68756627D01*
X91006443Y-68926466D01*
X90922778Y-69082991D01*
X90893448Y-69118729D01*
X90810186Y-69220186D01*
X90708729Y-69303448D01*
X90672991Y-69332778D01*
X90516466Y-69416443D01*
X90346627Y-69467963D01*
X90280442Y-69474482D01*
X90214260Y-69481000D01*
X90125740Y-69481000D01*
X90059558Y-69474482D01*
X89993373Y-69467963D01*
X89823534Y-69416443D01*
X89667009Y-69332778D01*
X89631271Y-69303448D01*
X89529814Y-69220186D01*
X89446552Y-69118729D01*
X89417222Y-69082991D01*
X89333557Y-68926466D01*
X89282037Y-68756627D01*
X89264641Y-68580000D01*
X89282037Y-68403373D01*
X89333557Y-68233534D01*
X89417222Y-68077009D01*
X89446552Y-68041271D01*
X89529814Y-67939814D01*
X89631271Y-67856552D01*
X89667009Y-67827222D01*
X89823534Y-67743557D01*
X89993373Y-67692037D01*
X90059557Y-67685519D01*
X90125740Y-67679000D01*
X90214260Y-67679000D01*
X90280443Y-67685519D01*
X90280443Y-67685519D01*
G37*
G36*
X92820443Y-67685519D02*
G01*
X92886627Y-67692037D01*
X93056466Y-67743557D01*
X93212991Y-67827222D01*
X93248729Y-67856552D01*
X93350186Y-67939814D01*
X93433448Y-68041271D01*
X93462778Y-68077009D01*
X93546443Y-68233534D01*
X93597963Y-68403373D01*
X93615359Y-68580000D01*
X93597963Y-68756627D01*
X93546443Y-68926466D01*
X93462778Y-69082991D01*
X93433448Y-69118729D01*
X93350186Y-69220186D01*
X93248729Y-69303448D01*
X93212991Y-69332778D01*
X93056466Y-69416443D01*
X92886627Y-69467963D01*
X92820442Y-69474482D01*
X92754260Y-69481000D01*
X92665740Y-69481000D01*
X92599558Y-69474482D01*
X92533373Y-69467963D01*
X92363534Y-69416443D01*
X92207009Y-69332778D01*
X92171271Y-69303448D01*
X92069814Y-69220186D01*
X91986552Y-69118729D01*
X91957222Y-69082991D01*
X91873557Y-68926466D01*
X91822037Y-68756627D01*
X91804641Y-68580000D01*
X91822037Y-68403373D01*
X91873557Y-68233534D01*
X91957222Y-68077009D01*
X91986552Y-68041271D01*
X92069814Y-67939814D01*
X92171271Y-67856552D01*
X92207009Y-67827222D01*
X92363534Y-67743557D01*
X92533373Y-67692037D01*
X92599557Y-67685519D01*
X92665740Y-67679000D01*
X92754260Y-67679000D01*
X92820443Y-67685519D01*
X92820443Y-67685519D01*
G37*
G36*
X90280442Y-65145518D02*
G01*
X90346627Y-65152037D01*
X90516466Y-65203557D01*
X90672991Y-65287222D01*
X90708729Y-65316552D01*
X90810186Y-65399814D01*
X90893448Y-65501271D01*
X90922778Y-65537009D01*
X91006443Y-65693534D01*
X91057963Y-65863373D01*
X91075359Y-66040000D01*
X91057963Y-66216627D01*
X91006443Y-66386466D01*
X90922778Y-66542991D01*
X90893448Y-66578729D01*
X90810186Y-66680186D01*
X90708729Y-66763448D01*
X90672991Y-66792778D01*
X90516466Y-66876443D01*
X90346627Y-66927963D01*
X90280442Y-66934482D01*
X90214260Y-66941000D01*
X90125740Y-66941000D01*
X90059558Y-66934482D01*
X89993373Y-66927963D01*
X89823534Y-66876443D01*
X89667009Y-66792778D01*
X89631271Y-66763448D01*
X89529814Y-66680186D01*
X89446552Y-66578729D01*
X89417222Y-66542991D01*
X89333557Y-66386466D01*
X89282037Y-66216627D01*
X89264641Y-66040000D01*
X89282037Y-65863373D01*
X89333557Y-65693534D01*
X89417222Y-65537009D01*
X89446552Y-65501271D01*
X89529814Y-65399814D01*
X89631271Y-65316552D01*
X89667009Y-65287222D01*
X89823534Y-65203557D01*
X89993373Y-65152037D01*
X90059558Y-65145518D01*
X90125740Y-65139000D01*
X90214260Y-65139000D01*
X90280442Y-65145518D01*
X90280442Y-65145518D01*
G37*
G36*
X77580442Y-65145518D02*
G01*
X77646627Y-65152037D01*
X77816466Y-65203557D01*
X77972991Y-65287222D01*
X78008729Y-65316552D01*
X78110186Y-65399814D01*
X78193448Y-65501271D01*
X78222778Y-65537009D01*
X78306443Y-65693534D01*
X78357963Y-65863373D01*
X78375359Y-66040000D01*
X78357963Y-66216627D01*
X78306443Y-66386466D01*
X78222778Y-66542991D01*
X78193448Y-66578729D01*
X78110186Y-66680186D01*
X78008729Y-66763448D01*
X77972991Y-66792778D01*
X77816466Y-66876443D01*
X77646627Y-66927963D01*
X77580442Y-66934482D01*
X77514260Y-66941000D01*
X77425740Y-66941000D01*
X77359558Y-66934482D01*
X77293373Y-66927963D01*
X77123534Y-66876443D01*
X76967009Y-66792778D01*
X76931271Y-66763448D01*
X76829814Y-66680186D01*
X76746552Y-66578729D01*
X76717222Y-66542991D01*
X76633557Y-66386466D01*
X76582037Y-66216627D01*
X76564641Y-66040000D01*
X76582037Y-65863373D01*
X76633557Y-65693534D01*
X76717222Y-65537009D01*
X76746552Y-65501271D01*
X76829814Y-65399814D01*
X76931271Y-65316552D01*
X76967009Y-65287222D01*
X77123534Y-65203557D01*
X77293373Y-65152037D01*
X77359558Y-65145518D01*
X77425740Y-65139000D01*
X77514260Y-65139000D01*
X77580442Y-65145518D01*
X77580442Y-65145518D01*
G37*
G36*
X80120442Y-65145518D02*
G01*
X80186627Y-65152037D01*
X80356466Y-65203557D01*
X80512991Y-65287222D01*
X80548729Y-65316552D01*
X80650186Y-65399814D01*
X80733448Y-65501271D01*
X80762778Y-65537009D01*
X80846443Y-65693534D01*
X80897963Y-65863373D01*
X80915359Y-66040000D01*
X80897963Y-66216627D01*
X80846443Y-66386466D01*
X80762778Y-66542991D01*
X80733448Y-66578729D01*
X80650186Y-66680186D01*
X80548729Y-66763448D01*
X80512991Y-66792778D01*
X80356466Y-66876443D01*
X80186627Y-66927963D01*
X80120442Y-66934482D01*
X80054260Y-66941000D01*
X79965740Y-66941000D01*
X79899558Y-66934482D01*
X79833373Y-66927963D01*
X79663534Y-66876443D01*
X79507009Y-66792778D01*
X79471271Y-66763448D01*
X79369814Y-66680186D01*
X79286552Y-66578729D01*
X79257222Y-66542991D01*
X79173557Y-66386466D01*
X79122037Y-66216627D01*
X79104641Y-66040000D01*
X79122037Y-65863373D01*
X79173557Y-65693534D01*
X79257222Y-65537009D01*
X79286552Y-65501271D01*
X79369814Y-65399814D01*
X79471271Y-65316552D01*
X79507009Y-65287222D01*
X79663534Y-65203557D01*
X79833373Y-65152037D01*
X79899558Y-65145518D01*
X79965740Y-65139000D01*
X80054260Y-65139000D01*
X80120442Y-65145518D01*
X80120442Y-65145518D01*
G37*
G36*
X82660442Y-65145518D02*
G01*
X82726627Y-65152037D01*
X82896466Y-65203557D01*
X83052991Y-65287222D01*
X83088729Y-65316552D01*
X83190186Y-65399814D01*
X83273448Y-65501271D01*
X83302778Y-65537009D01*
X83386443Y-65693534D01*
X83437963Y-65863373D01*
X83455359Y-66040000D01*
X83437963Y-66216627D01*
X83386443Y-66386466D01*
X83302778Y-66542991D01*
X83273448Y-66578729D01*
X83190186Y-66680186D01*
X83088729Y-66763448D01*
X83052991Y-66792778D01*
X82896466Y-66876443D01*
X82726627Y-66927963D01*
X82660442Y-66934482D01*
X82594260Y-66941000D01*
X82505740Y-66941000D01*
X82439558Y-66934482D01*
X82373373Y-66927963D01*
X82203534Y-66876443D01*
X82047009Y-66792778D01*
X82011271Y-66763448D01*
X81909814Y-66680186D01*
X81826552Y-66578729D01*
X81797222Y-66542991D01*
X81713557Y-66386466D01*
X81662037Y-66216627D01*
X81644641Y-66040000D01*
X81662037Y-65863373D01*
X81713557Y-65693534D01*
X81797222Y-65537009D01*
X81826552Y-65501271D01*
X81909814Y-65399814D01*
X82011271Y-65316552D01*
X82047009Y-65287222D01*
X82203534Y-65203557D01*
X82373373Y-65152037D01*
X82439558Y-65145518D01*
X82505740Y-65139000D01*
X82594260Y-65139000D01*
X82660442Y-65145518D01*
X82660442Y-65145518D01*
G37*
G36*
X87740442Y-65145518D02*
G01*
X87806627Y-65152037D01*
X87976466Y-65203557D01*
X88132991Y-65287222D01*
X88168729Y-65316552D01*
X88270186Y-65399814D01*
X88353448Y-65501271D01*
X88382778Y-65537009D01*
X88466443Y-65693534D01*
X88517963Y-65863373D01*
X88535359Y-66040000D01*
X88517963Y-66216627D01*
X88466443Y-66386466D01*
X88382778Y-66542991D01*
X88353448Y-66578729D01*
X88270186Y-66680186D01*
X88168729Y-66763448D01*
X88132991Y-66792778D01*
X87976466Y-66876443D01*
X87806627Y-66927963D01*
X87740442Y-66934482D01*
X87674260Y-66941000D01*
X87585740Y-66941000D01*
X87519558Y-66934482D01*
X87453373Y-66927963D01*
X87283534Y-66876443D01*
X87127009Y-66792778D01*
X87091271Y-66763448D01*
X86989814Y-66680186D01*
X86906552Y-66578729D01*
X86877222Y-66542991D01*
X86793557Y-66386466D01*
X86742037Y-66216627D01*
X86724641Y-66040000D01*
X86742037Y-65863373D01*
X86793557Y-65693534D01*
X86877222Y-65537009D01*
X86906552Y-65501271D01*
X86989814Y-65399814D01*
X87091271Y-65316552D01*
X87127009Y-65287222D01*
X87283534Y-65203557D01*
X87453373Y-65152037D01*
X87519558Y-65145518D01*
X87585740Y-65139000D01*
X87674260Y-65139000D01*
X87740442Y-65145518D01*
X87740442Y-65145518D01*
G37*
G36*
X85200442Y-65145518D02*
G01*
X85266627Y-65152037D01*
X85436466Y-65203557D01*
X85592991Y-65287222D01*
X85628729Y-65316552D01*
X85730186Y-65399814D01*
X85813448Y-65501271D01*
X85842778Y-65537009D01*
X85926443Y-65693534D01*
X85977963Y-65863373D01*
X85995359Y-66040000D01*
X85977963Y-66216627D01*
X85926443Y-66386466D01*
X85842778Y-66542991D01*
X85813448Y-66578729D01*
X85730186Y-66680186D01*
X85628729Y-66763448D01*
X85592991Y-66792778D01*
X85436466Y-66876443D01*
X85266627Y-66927963D01*
X85200442Y-66934482D01*
X85134260Y-66941000D01*
X85045740Y-66941000D01*
X84979558Y-66934482D01*
X84913373Y-66927963D01*
X84743534Y-66876443D01*
X84587009Y-66792778D01*
X84551271Y-66763448D01*
X84449814Y-66680186D01*
X84366552Y-66578729D01*
X84337222Y-66542991D01*
X84253557Y-66386466D01*
X84202037Y-66216627D01*
X84184641Y-66040000D01*
X84202037Y-65863373D01*
X84253557Y-65693534D01*
X84337222Y-65537009D01*
X84366552Y-65501271D01*
X84449814Y-65399814D01*
X84551271Y-65316552D01*
X84587009Y-65287222D01*
X84743534Y-65203557D01*
X84913373Y-65152037D01*
X84979558Y-65145518D01*
X85045740Y-65139000D01*
X85134260Y-65139000D01*
X85200442Y-65145518D01*
X85200442Y-65145518D01*
G37*
G36*
X92820442Y-65145518D02*
G01*
X92886627Y-65152037D01*
X93056466Y-65203557D01*
X93212991Y-65287222D01*
X93248729Y-65316552D01*
X93350186Y-65399814D01*
X93433448Y-65501271D01*
X93462778Y-65537009D01*
X93546443Y-65693534D01*
X93597963Y-65863373D01*
X93615359Y-66040000D01*
X93597963Y-66216627D01*
X93546443Y-66386466D01*
X93462778Y-66542991D01*
X93433448Y-66578729D01*
X93350186Y-66680186D01*
X93248729Y-66763448D01*
X93212991Y-66792778D01*
X93056466Y-66876443D01*
X92886627Y-66927963D01*
X92820442Y-66934482D01*
X92754260Y-66941000D01*
X92665740Y-66941000D01*
X92599558Y-66934482D01*
X92533373Y-66927963D01*
X92363534Y-66876443D01*
X92207009Y-66792778D01*
X92171271Y-66763448D01*
X92069814Y-66680186D01*
X91986552Y-66578729D01*
X91957222Y-66542991D01*
X91873557Y-66386466D01*
X91822037Y-66216627D01*
X91804641Y-66040000D01*
X91822037Y-65863373D01*
X91873557Y-65693534D01*
X91957222Y-65537009D01*
X91986552Y-65501271D01*
X92069814Y-65399814D01*
X92171271Y-65316552D01*
X92207009Y-65287222D01*
X92363534Y-65203557D01*
X92533373Y-65152037D01*
X92599558Y-65145518D01*
X92665740Y-65139000D01*
X92754260Y-65139000D01*
X92820442Y-65145518D01*
X92820442Y-65145518D01*
G37*
G36*
X84334708Y-58481398D02*
G01*
X84369627Y-58491991D01*
X84401809Y-58509193D01*
X84430019Y-58532344D01*
X84453170Y-58560554D01*
X84470372Y-58592736D01*
X84480965Y-58627655D01*
X84485146Y-58670112D01*
X84485146Y-60136322D01*
X84480965Y-60178779D01*
X84470372Y-60213698D01*
X84453170Y-60245880D01*
X84430019Y-60274090D01*
X84401809Y-60297241D01*
X84369627Y-60314443D01*
X84334708Y-60325036D01*
X84292251Y-60329217D01*
X83151041Y-60329217D01*
X83108584Y-60325036D01*
X83073665Y-60314443D01*
X83041483Y-60297241D01*
X83013273Y-60274090D01*
X82990122Y-60245880D01*
X82972920Y-60213698D01*
X82962327Y-60178779D01*
X82958146Y-60136322D01*
X82958146Y-58670112D01*
X82962327Y-58627655D01*
X82972920Y-58592736D01*
X82990122Y-58560554D01*
X83013273Y-58532344D01*
X83041483Y-58509193D01*
X83073665Y-58491991D01*
X83108584Y-58481398D01*
X83151041Y-58477217D01*
X84292251Y-58477217D01*
X84334708Y-58481398D01*
X84334708Y-58481398D01*
G37*
G36*
X81359708Y-58481398D02*
G01*
X81394627Y-58491991D01*
X81426809Y-58509193D01*
X81455019Y-58532344D01*
X81478170Y-58560554D01*
X81495372Y-58592736D01*
X81505965Y-58627655D01*
X81510146Y-58670112D01*
X81510146Y-60136322D01*
X81505965Y-60178779D01*
X81495372Y-60213698D01*
X81478170Y-60245880D01*
X81455019Y-60274090D01*
X81426809Y-60297241D01*
X81394627Y-60314443D01*
X81359708Y-60325036D01*
X81317251Y-60329217D01*
X80176041Y-60329217D01*
X80133584Y-60325036D01*
X80098665Y-60314443D01*
X80066483Y-60297241D01*
X80038273Y-60274090D01*
X80015122Y-60245880D01*
X79997920Y-60213698D01*
X79987327Y-60178779D01*
X79983146Y-60136322D01*
X79983146Y-58670112D01*
X79987327Y-58627655D01*
X79997920Y-58592736D01*
X80015122Y-58560554D01*
X80038273Y-58532344D01*
X80066483Y-58509193D01*
X80098665Y-58491991D01*
X80133584Y-58481398D01*
X80176041Y-58477217D01*
X81317251Y-58477217D01*
X81359708Y-58481398D01*
X81359708Y-58481398D01*
G37*
G36*
X87252945Y-58440473D02*
G01*
X87287864Y-58451066D01*
X87320046Y-58468268D01*
X87348256Y-58491419D01*
X87371407Y-58519629D01*
X87388609Y-58551811D01*
X87399202Y-58586730D01*
X87403383Y-58629187D01*
X87403383Y-60095397D01*
X87399202Y-60137854D01*
X87388609Y-60172773D01*
X87371407Y-60204955D01*
X87348256Y-60233165D01*
X87320046Y-60256316D01*
X87287864Y-60273518D01*
X87252945Y-60284111D01*
X87210488Y-60288292D01*
X86069278Y-60288292D01*
X86026821Y-60284111D01*
X85991902Y-60273518D01*
X85959720Y-60256316D01*
X85931510Y-60233165D01*
X85908359Y-60204955D01*
X85891157Y-60172773D01*
X85880564Y-60137854D01*
X85876383Y-60095397D01*
X85876383Y-58629187D01*
X85880564Y-58586730D01*
X85891157Y-58551811D01*
X85908359Y-58519629D01*
X85931510Y-58491419D01*
X85959720Y-58468268D01*
X85991902Y-58451066D01*
X86026821Y-58440473D01*
X86069278Y-58436292D01*
X87210488Y-58436292D01*
X87252945Y-58440473D01*
X87252945Y-58440473D01*
G37*
G36*
X90227945Y-58440473D02*
G01*
X90262864Y-58451066D01*
X90295046Y-58468268D01*
X90323256Y-58491419D01*
X90346407Y-58519629D01*
X90363609Y-58551811D01*
X90374202Y-58586730D01*
X90378383Y-58629187D01*
X90378383Y-60095397D01*
X90374202Y-60137854D01*
X90363609Y-60172773D01*
X90346407Y-60204955D01*
X90323256Y-60233165D01*
X90295046Y-60256316D01*
X90262864Y-60273518D01*
X90227945Y-60284111D01*
X90185488Y-60288292D01*
X89044278Y-60288292D01*
X89001821Y-60284111D01*
X88966902Y-60273518D01*
X88934720Y-60256316D01*
X88906510Y-60233165D01*
X88883359Y-60204955D01*
X88866157Y-60172773D01*
X88855564Y-60137854D01*
X88851383Y-60095397D01*
X88851383Y-58629187D01*
X88855564Y-58586730D01*
X88866157Y-58551811D01*
X88883359Y-58519629D01*
X88906510Y-58491419D01*
X88934720Y-58468268D01*
X88966902Y-58451066D01*
X89001821Y-58440473D01*
X89044278Y-58436292D01*
X90185488Y-58436292D01*
X90227945Y-58440473D01*
X90227945Y-58440473D01*
G37*
G36*
X87144360Y-48393323D02*
G01*
X87179279Y-48403916D01*
X87211461Y-48421118D01*
X87239671Y-48444269D01*
X87262822Y-48472479D01*
X87280024Y-48504661D01*
X87290617Y-48539580D01*
X87294798Y-48582037D01*
X87294798Y-50048247D01*
X87290617Y-50090704D01*
X87280024Y-50125623D01*
X87262822Y-50157805D01*
X87239671Y-50186015D01*
X87211461Y-50209166D01*
X87179279Y-50226368D01*
X87144360Y-50236961D01*
X87101903Y-50241142D01*
X85960693Y-50241142D01*
X85918236Y-50236961D01*
X85883317Y-50226368D01*
X85851135Y-50209166D01*
X85822925Y-50186015D01*
X85799774Y-50157805D01*
X85782572Y-50125623D01*
X85771979Y-50090704D01*
X85767798Y-50048247D01*
X85767798Y-48582037D01*
X85771979Y-48539580D01*
X85782572Y-48504661D01*
X85799774Y-48472479D01*
X85822925Y-48444269D01*
X85851135Y-48421118D01*
X85883317Y-48403916D01*
X85918236Y-48393323D01*
X85960693Y-48389142D01*
X87101903Y-48389142D01*
X87144360Y-48393323D01*
X87144360Y-48393323D01*
G37*
G36*
X90119360Y-48393323D02*
G01*
X90154279Y-48403916D01*
X90186461Y-48421118D01*
X90214671Y-48444269D01*
X90237822Y-48472479D01*
X90255024Y-48504661D01*
X90265617Y-48539580D01*
X90269798Y-48582037D01*
X90269798Y-50048247D01*
X90265617Y-50090704D01*
X90255024Y-50125623D01*
X90237822Y-50157805D01*
X90214671Y-50186015D01*
X90186461Y-50209166D01*
X90154279Y-50226368D01*
X90119360Y-50236961D01*
X90076903Y-50241142D01*
X88935693Y-50241142D01*
X88893236Y-50236961D01*
X88858317Y-50226368D01*
X88826135Y-50209166D01*
X88797925Y-50186015D01*
X88774774Y-50157805D01*
X88757572Y-50125623D01*
X88746979Y-50090704D01*
X88742798Y-50048247D01*
X88742798Y-48582037D01*
X88746979Y-48539580D01*
X88757572Y-48504661D01*
X88774774Y-48472479D01*
X88797925Y-48444269D01*
X88826135Y-48421118D01*
X88858317Y-48403916D01*
X88893236Y-48393323D01*
X88935693Y-48389142D01*
X90076903Y-48389142D01*
X90119360Y-48393323D01*
X90119360Y-48393323D01*
G37*
G36*
X81458062Y-48390681D02*
G01*
X81492981Y-48401274D01*
X81525163Y-48418476D01*
X81553373Y-48441627D01*
X81576524Y-48469837D01*
X81593726Y-48502019D01*
X81604319Y-48536938D01*
X81608500Y-48579395D01*
X81608500Y-50045605D01*
X81604319Y-50088062D01*
X81593726Y-50122981D01*
X81576524Y-50155163D01*
X81553373Y-50183373D01*
X81525163Y-50206524D01*
X81492981Y-50223726D01*
X81458062Y-50234319D01*
X81415605Y-50238500D01*
X80274395Y-50238500D01*
X80231938Y-50234319D01*
X80197019Y-50223726D01*
X80164837Y-50206524D01*
X80136627Y-50183373D01*
X80113476Y-50155163D01*
X80096274Y-50122981D01*
X80085681Y-50088062D01*
X80081500Y-50045605D01*
X80081500Y-48579395D01*
X80085681Y-48536938D01*
X80096274Y-48502019D01*
X80113476Y-48469837D01*
X80136627Y-48441627D01*
X80164837Y-48418476D01*
X80197019Y-48401274D01*
X80231938Y-48390681D01*
X80274395Y-48386500D01*
X81415605Y-48386500D01*
X81458062Y-48390681D01*
X81458062Y-48390681D01*
G37*
G36*
X84433062Y-48390681D02*
G01*
X84467981Y-48401274D01*
X84500163Y-48418476D01*
X84528373Y-48441627D01*
X84551524Y-48469837D01*
X84568726Y-48502019D01*
X84579319Y-48536938D01*
X84583500Y-48579395D01*
X84583500Y-50045605D01*
X84579319Y-50088062D01*
X84568726Y-50122981D01*
X84551524Y-50155163D01*
X84528373Y-50183373D01*
X84500163Y-50206524D01*
X84467981Y-50223726D01*
X84433062Y-50234319D01*
X84390605Y-50238500D01*
X83249395Y-50238500D01*
X83206938Y-50234319D01*
X83172019Y-50223726D01*
X83139837Y-50206524D01*
X83111627Y-50183373D01*
X83088476Y-50155163D01*
X83071274Y-50122981D01*
X83060681Y-50088062D01*
X83056500Y-50045605D01*
X83056500Y-48579395D01*
X83060681Y-48536938D01*
X83071274Y-48502019D01*
X83088476Y-48469837D01*
X83111627Y-48441627D01*
X83139837Y-48418476D01*
X83172019Y-48401274D01*
X83206938Y-48390681D01*
X83249395Y-48386500D01*
X84390605Y-48386500D01*
X84433062Y-48390681D01*
X84433062Y-48390681D01*
G37*
M02*
